<svg width="200" height="200" fill="none" xmlns="http://www.w3.org/2000/svg"><path fill="url(#paint0_linear)" d="M0 0h200v200H0z"/><g filter="url(#filter0_d)" fill="#fff"><path d="M24.25 114.039c0-2.775-1.053-4.897-3.158-6.364-2.074-1.468-5.104-2.201-9.092-2.201V94.037c4.02 0 7.066-.702 9.14-2.105 2.073-1.404 3.11-3.414 3.11-6.03v-15.6c0-4.88 1.547-8.31 4.642-10.287C31.986 58.005 37.425 57 45.209 57v10.767c-3.158.095-5.343.701-6.556 1.818-1.18 1.117-1.77 2.76-1.77 4.929V88.82c-.192 5.998-3.924 9.539-11.198 10.623v.575c7.465 1.116 11.198 4.498 11.198 10.144v14.738c0 2.17.59 3.813 1.77 4.929 1.18 1.117 3.366 1.723 6.556 1.818v10.815c-7.784 0-13.223-1.005-16.317-3.015-3.095-1.978-4.642-5.423-4.642-10.336v-15.073zM78.561 127.916c-16.652 0-24.978-9.14-24.978-27.419 0-9.092 2.265-16.03 6.795-20.815 4.53-4.817 11.022-7.226 19.475-7.226 6.19 0 11.74 1.212 16.653 3.637l-4.307 11.293c-2.297-.925-4.434-1.675-6.412-2.25a20.159 20.159 0 00-5.934-.908c-7.592 0-11.388 5.39-11.388 16.173 0 10.464 3.796 15.696 11.388 15.696 2.808 0 5.408-.367 7.8-1.101 2.393-.766 4.785-1.946 7.178-3.541v12.489c-2.36 1.5-4.753 2.536-7.178 3.111-2.392.574-5.423.861-9.092.861zM128.997 127.916c-16.652 0-24.978-9.14-24.978-27.419 0-9.092 2.265-16.03 6.794-20.815 4.53-4.817 11.022-7.226 19.476-7.226 6.189 0 11.74 1.212 16.652 3.637l-4.306 11.293c-2.297-.925-4.434-1.675-6.412-2.25a20.161 20.161 0 00-5.934-.908c-7.592 0-11.389 5.39-11.389 16.173 0 10.464 3.797 15.696 11.389 15.696 2.807 0 5.407-.367 7.8-1.101 2.392-.766 4.785-1.946 7.178-3.541v12.489c-2.361 1.5-4.754 2.536-7.178 3.111-2.393.574-5.423.861-9.092.861zM174.935 129.112c0 3.573-.654 6.269-1.962 8.087-1.308 1.819-3.478 3.142-6.508 3.972-2.999.861-7.162 1.292-12.489 1.292v-10.815c3.158-.063 5.327-.638 6.507-1.722 1.213-1.085 1.819-2.76 1.819-5.025v-14.834c0-2.743.941-4.96 2.823-6.651 1.882-1.723 4.658-2.855 8.326-3.397v-.575c-7.241-1.084-10.958-4.625-11.149-10.623V74.514c0-2.233-.59-3.892-1.771-4.977-1.18-1.085-3.365-1.675-6.555-1.77V57c5.327 0 9.506.43 12.537 1.292 3.03.83 5.184 2.17 6.46 4.02 1.308 1.818 1.962 4.482 1.962 7.99v15.696c0 2.68.973 4.69 2.919 6.03 1.977 1.34 5.088 2.01 9.331 2.01v11.436c-3.988 0-7.035.654-9.14 1.962-2.074 1.307-3.11 3.509-3.11 6.603v15.073z"/></g><defs><linearGradient id="paint0_linear" x1="0" y1="0" x2="200" y2="200" gradientUnits="userSpaceOnUse"><stop stop-color="#7FA2EE"/><stop offset=".521" stop-color="#7E6DD2"/><stop offset="1" stop-color="#7C4ABF"/></linearGradient><filter id="filter0_d" x="12" y="52" width="180.185" height="90.463" filterUnits="userSpaceOnUse" color-interpolation-filters="sRGB"><feFlood flood-opacity="0" result="BackgroundImageFix"/><feColorMatrix in="SourceAlpha" values="0 0 0 0 0 0 0 0 0 0 0 0 0 0 0 0 0 0 127 0"/><feOffset dx="5" dy="-5"/><feColorMatrix values="0 0 0 0 0 0 0 0 0 0 0 0 0 0 0 0 0 0 0.75 0"/><feBlend in2="BackgroundImageFix" result="effect1_dropShadow"/><feBlend in="SourceGraphic" in2="effect1_dropShadow" result="shape"/></filter></defs></svg>