<svg width="200" height="200" fill="none" xmlns="http://www.w3.org/2000/svg"><path fill-rule="evenodd" clip-rule="evenodd" d="M200 0H0v200h200V0zM21.092 107.675c2.105 1.467 3.158 3.589 3.158 6.364v15.073c0 4.913 1.547 8.358 4.642 10.336 3.094 2.01 8.533 3.015 16.317 3.015v-10.815c-3.19-.095-5.375-.701-6.556-1.818-1.18-1.116-1.77-2.759-1.77-4.929v-14.738c0-5.646-3.733-9.028-11.198-10.144v-.575c7.274-1.084 11.006-4.625 11.198-10.623V74.514c0-2.17.59-3.813 1.77-4.929 1.213-1.117 3.398-1.723 6.556-1.818V57c-7.784 0-13.223 1.005-16.317 3.015-3.095 1.977-4.642 5.407-4.642 10.288v15.6c0 2.615-1.037 4.625-3.11 6.029-2.074 1.403-5.12 2.105-9.14 2.105v11.437c3.988 0 7.018.733 9.092 2.201zm32.491-7.178c0 18.279 8.326 27.419 24.978 27.419 3.67 0 6.7-.287 9.092-.861 2.425-.575 4.817-1.611 7.178-3.111v-12.489c-2.392 1.595-4.785 2.775-7.178 3.541-2.392.734-4.992 1.101-7.8 1.101-7.592 0-11.388-5.232-11.388-15.696 0-10.782 3.796-16.173 11.388-16.173 1.978 0 3.956.303 5.934.909 1.978.574 4.115 1.324 6.412 2.249l4.307-11.293c-4.913-2.425-10.464-3.637-16.653-3.637-8.453 0-14.945 2.409-19.475 7.226-4.53 4.785-6.795 11.723-6.795 20.815zm75.414 27.419c-16.652 0-24.978-9.14-24.978-27.419 0-9.092 2.265-16.03 6.794-20.815 4.53-4.817 11.022-7.226 19.476-7.226 6.189 0 11.74 1.212 16.652 3.637l-4.306 11.293c-2.297-.925-4.434-1.675-6.412-2.25a20.161 20.161 0 00-5.934-.908c-7.592 0-11.389 5.39-11.389 16.173 0 10.464 3.797 15.696 11.389 15.696 2.807 0 5.407-.367 7.8-1.101 2.392-.766 4.785-1.946 7.178-3.541v12.489c-2.361 1.5-4.754 2.536-7.178 3.111-2.393.574-5.423.861-9.092.861zm43.976 9.283c1.308-1.818 1.962-4.514 1.962-8.087v-15.073c0-3.094 1.036-5.296 3.11-6.603 2.105-1.308 5.152-1.962 9.14-1.962V94.037c-4.243 0-7.354-.67-9.331-2.01-1.946-1.34-2.919-3.35-2.919-6.029V70.303c0-3.51-.654-6.173-1.962-7.991-1.276-1.85-3.43-3.19-6.46-4.02-3.031-.861-7.21-1.292-12.537-1.292v10.767c3.19.095 5.375.686 6.555 1.77 1.181 1.085 1.771 2.744 1.771 4.977V88.82c.191 5.998 3.908 9.539 11.149 10.623v.575c-3.668.542-6.444 1.674-8.326 3.397-1.882 1.691-2.823 3.908-2.823 6.651v14.834c0 2.265-.606 3.94-1.819 5.025-1.18 1.084-3.349 1.659-6.507 1.722v10.815c5.327 0 9.49-.431 12.489-1.292 3.03-.83 5.2-2.153 6.508-3.972z" fill="#000"/></svg>